<svg xmlns="http://www.w3.org/2000/svg" width="512" height="512" viewBox="0 0 512 512"><path d="M479.971 32.18c-21.72 21.211-42.89 43-64.52 64.301-1.05 1.23-2.26-.16-3.09-.85-24.511-23.98-54.58-42.281-87.221-52.84-37.6-12.16-78.449-14.07-117.029-5.59C139.441 51.871 79.3 101.26 51.671 165.81l.093.039a33.301 33.301 0 0 0-3.605 15.1c0 18.475 14.977 33.451 33.451 33.451 15.831 0 29.084-11.002 32.555-25.773 19.757-41.979 58.832-74.445 103.967-85.527 52.2-13.17 111.37 1.33 149.4 40.041-22.03 21.83-44.391 43.34-66.33 65.26 59.52-.32 119.06-.141 178.59-.09.499-58.7.139-117.42.179-176.131zM431.609 297.5c-14.62 0-27.041 9.383-31.591 22.453l-.027-.012c-19.11 42.59-57.57 76.219-102.84 88.18-52.799 14.311-113.45.299-152.179-39.051 21.92-21.76 44.369-43.01 66.189-64.869-59.7.049-119.41.029-179.11.01-.14 58.6-.159 117.189.011 175.789 21.92-21.91 43.75-43.91 65.79-65.699 14.109 13.789 29.76 26.07 46.92 35.869 54.739 31.971 123.399 38.602 183.299 17.891 57.477-19.297 106.073-63.178 131.212-118.318a33.288 33.288 0 0 0 5.776-18.793c.001-18.473-14.976-33.45-33.45-33.45z"/></svg>